<svg width="24" height="20" viewBox="0 0 24 20" fill="none" xmlns="http://www.w3.org/2000/svg">
<path d="M23.9986 2.79388C23.1 3.19197 22.1469 3.45328 21.1708 3.56912C22.1875 2.9598 22.968 1.99493 23.3356 0.845288C22.3692 1.41878 21.3118 1.82284 20.2093 2.04002C19.3111 1.0832 18.0317 0.485229 16.6155 0.485229C13.8965 0.485229 11.692 2.68964 11.692 5.4085C11.692 5.79443 11.7355 6.17014 11.8194 6.53058C7.72766 6.32519 4.09989 4.36516 1.67153 1.38645C1.24782 2.1136 1.00503 2.95943 1.00503 3.86159C1.00503 5.56973 1.87429 7.07662 3.19529 7.95956C2.41344 7.93508 1.6488 7.72391 0.965195 7.34368C0.964914 7.36431 0.964914 7.38493 0.964914 7.40565C0.964914 9.79107 2.662 11.781 4.91422 12.2333C4.18921 12.4305 3.42873 12.4593 2.69087 12.3177C3.31734 14.2737 5.13563 15.697 7.28998 15.7369C5.60499 17.0573 3.48204 17.8444 1.17546 17.8444C0.777994 17.8444 0.386158 17.8211 0.000976562 17.7756C2.1798 19.1726 4.7677 19.9876 7.54805 19.9876C16.6041 19.9876 21.5561 12.4855 21.5561 5.97947C21.5561 5.76593 21.5514 5.55361 21.5419 5.3425C22.5057 4.64572 23.3377 3.78267 23.9986 2.79388Z" fill="#55ACEE"/>
</svg>
